<?xml version="1.0" standalone="no"?> <!DOCTYPE svg PUBLIC "-//W3C//DTD SVG 1.0//EN" "http://www.w3.org/TR/2001/REC-SVG-20010904/DTD/svg10.dtd" > <svg xmlns="http://www.w3.org/2000/svg" width="100%" height="100%">
<defs >
<font id="neutradisplay-draft" horiz-adv-x="649" ><font-face
    font-family="Neutra Display Drafting"
    units-per-em="1000"
    panose-1="2 0 0 0 0 0 0 0 0 0"
    ascent="780"
    descent="-221"
    alphabetic="0" />
<missing-glyph horiz-adv-x="500" />
<glyph unicode=" " glyph-name="space" horiz-adv-x="182" />
<glyph unicode="!" glyph-name="exclam" horiz-adv-x="302" d="M178 677Q176 640 178 601T179 524Q178 491 175 424T171 338Q170 305 172 271T174 215Q174 201 162 197T136 198T123 214Q124 257 124 347T127 483Q129 523 124 581T119 671Q119 692 149 693T178
677ZM105 44Q106 87 145 90Q166 92 181 80T198 46Q199 21 186 8T151 -6Q131 -6 118 8T105 44Z" />
<glyph unicode="&quot;" glyph-name="quotedbl" horiz-adv-x="296" d="M247 661Q247 654 245 638T243 615Q243 604 243 550T241 482Q240 465 214 467T188 483Q193 574 186 673Q186 683 201 687T232 685T247 661ZM114 671Q121 552 110 480Q107 461 86 464T65 483Q67
561 65 595Q65 604 59 625T51 661Q51 675 66 684T97 690T114 671Z" />
<glyph unicode="#" glyph-name="numbersign" horiz-adv-x="501" d="M471 573Q478 573 481 558T481 527T467 512Q441 515 422 515Q404 516 395 500T368 414Q358 376 368 371T427 371Q451 373 448 346T431 317Q419 316 396 314L372 313Q359 314 352 312T342 304T335
276Q334 270 333 259T331 236T330 220Q328 204 304 210T283 232Q294 277 293 294T273 311Q267 311 239 311T206 312Q200 312 196 312T187 311T180 307T173 298T167 282Q166 279 162 253T155 218Q150 201 125 206T105 231Q117 267 121 285T119 309T88 316Q80 317
51 317Q36 318 43 342T62 368Q87 370 106 368Q126 366 132 372T146 399Q154 424 160 478Q162 496 155 503T129 510T83 511Q70 511 67 521T67 544T80 567T99 577Q108 577 141 574Q150 574 158 574T173 580T184 605Q186 616 190 645L193 674Q194 683 205 686T227
684T235 667Q212 565 251 566Q274 566 326 570Q348 573 353 584T366 665Q368 678 392 678T415 663Q405 604 414 589T471 573ZM273 511Q262 511 254 511T238 510T227 507T219 502T214 493T210 479L199 413Q195 397 195 389T197 374T210 368T234 366T273 366Q299
366 311 388T337 492Q339 501 336 505T319 510T273 511Z" />
<glyph unicode="$" glyph-name="dollar" horiz-adv-x="706" d="M340 484Q343 429 349 413T375 394T437 393Q484 393 529 390T599 373Q633 354 651 309T669 220Q669 128 605 85T421 34Q373 31 365 26T357 -10Q357 -42 358 -57Q359 -70 338 -70T314 -57Q312 0 309
15T277 30Q128 30 108 33Q86 36 91 63T115 88Q190 78 239 77Q289 76 300 85T312 133Q312 200 311 231Q308 270 308 292T305 325T295 339T273 342Q226 342 162 353Q95 364 71 399T52 498Q59 575 134 610Q193 637 266 635Q279 635 283 640T288 654T286 684T283 728Q283
745 311 743T339 730Q337 698 337 679Q337 646 342 639T376 632Q447 632 509 626Q529 625 533 601T520 575Q511 574 444 577Q421 578 373 582Q350 584 344 567T340 484ZM302 418Q298 457 294 529Q292 567 287 576T260 586Q202 586 138 556Q117 546 110 533T99 495Q94
463 124 428T192 389Q220 387 245 383T287 387T302 418ZM360 278Q360 261 358 221T357 155Q357 142 356 127T355 104T356 91T361 82Q368 77 392 79T468 88Q486 90 520 96Q587 110 602 137T618 235Q618 262 604 289T568 330Q550 342 500 343T425 341Q397 340 384
339T364 332T357 323T358 304T360 278Z" />
<glyph unicode="%" glyph-name="percent" horiz-adv-x="1018" d="M455 472Q450 401 404 352T287 295Q199 287 130 338T58 474Q54 565 105 619T234 677Q261 678 300 670T360 650Q466 591 455 472ZM290 16Q333 70 378 138T468 283T529 383Q551 416 578 461T636 555L710
673Q719 687 739 675T754 654Q687 568 592 402T478 207Q452 167 436 144T388 77T323 -14Q308 -34 293 -16T290 16ZM978 162Q972 87 929 37T813 -14Q756 -14 704 3T624 49Q578 99 585 194Q591 268 669 322Q737 367 821 356Q899 346 942 296T978 162ZM103 460Q106
400 157 368T272 345Q333 354 374 403Q396 430 400 493Q405 559 363 594T253 631Q187 631 144 585T103 460ZM631 173Q627 110 673 72T801 34Q857 34 891 76T922 197Q919 258 894 283T808 309Q738 311 688 279T631 173Z" />
<glyph unicode="&amp;" glyph-name="ampersand" horiz-adv-x="746" d="M381 776Q381 788 395 795T424 800T439 784Q439 766 438 745T436 714T435 693T438 678T447 672T463 669Q476 669 509 671T554 674Q602 674 655 684Q671 687 677 676T679 651T665 637Q603 631
523 629Q461 628 447 620T432 578Q431 547 431 528T430 491T433 465T437 449T444 439T455 435T469 434T488 434Q560 434 592 432Q606 431 601 404T580 377Q569 378 510 378Q501 378 486 379T463 380T448 378T437 371T433 355Q433 297 435 225Q436 193 438 121Q439
75 448 59T481 43T543 45Q585 46 635 50T704 54Q727 53 731 39T727 10T705 -4Q568 -6 495 -8Q480 -8 471 -8T455 -11T446 -19T444 -37Q445 -59 447 -101T451 -158Q452 -171 438 -176T410 -178T395 -162V-79Q397 -56 396 -43T391 -22T380 -12T361 -8T335 -6Q289
-3 237 2Q151 10 108 75T68 240Q71 329 161 393Q182 407 182 419T164 449Q139 474 137 529Q133 598 170 635T280 676Q318 678 341 678Q342 678 345 678Q381 678 384 693Q385 705 385 713T383 742T381 776ZM386 498Q385 518 383 548T381 585T378 608T372 624T361
630T345 634T318 631T283 629Q239 627 212 593T187 513Q190 462 213 450T305 437Q313 437 330 436T355 435T371 436T382 440Q390 449 386 498ZM390 94Q386 145 384 339Q384 350 383 357T379 371T369 382T350 386Q317 387 287 385T227 369Q174 345 153 314T122 209T148
92T264 44Q355 40 374 47T390 94Z" />
<glyph unicode="&apos;" glyph-name="quotesingle" horiz-adv-x="165" d="M116 674Q117 649 112 583T104 482Q104 473 91 470T64 471T52 486Q56 529 56 565T55 631T54 673Q55 690 85 690T116 674Z" />
<glyph unicode="(" glyph-name="parenleft" horiz-adv-x="349" d="M330 639Q307 637 294 638T263 639T227 632Q198 623 176 586T145 507Q141 499 143 462T144 411V152Q146 77 182 52T319 34Q332 35 332 10T315 -17Q263 -24 199 -10Q96 13 94 191Q93 235 89 313T83
432T87 522T108 598Q122 624 150 650T207 682Q227 686 245 687T286 689T325 691Q337 692 341 679T343 653T330 639Z" />
<glyph unicode=")" glyph-name="parenright" horiz-adv-x="351" d="M68 48Q75 48 93 48T127 48T160 54Q209 70 225 125Q236 164 241 290Q247 429 251 545Q252 590 235 604T176 622Q148 624 63 626Q47 626 43 659T57 692Q93 691 181 689Q297 685 299 524Q301 432
295 288Q293 235 289 197T276 113T246 39T196 3Q138 -12 64 -8Q47 -7 50 20T68 48Z" />
<glyph unicode="*" glyph-name="asterisk" horiz-adv-x="437" d="M249 584Q256 583 340 624Q362 635 379 619T378 594Q368 589 346 580T310 564T285 551T275 540T310 517T360 485Q366 480 360 465T342 444T319 449Q308 464 285 483T254 502Q243 502 251 401Q252
385 237 380T207 381T192 404Q193 430 198 460T200 494Q195 498 164 475T113 445Q90 437 82 460T97 492Q172 522 175 539Q175 541 162 548T127 568T94 592Q85 600 97 617T126 620Q186 568 196 573Q200 575 200 618T202 677Q206 690 231 686T255 660Q255 646 251
625T246 597T249 584Z" />
<glyph unicode="+" glyph-name="plus" horiz-adv-x="459" d="M259 290Q262 285 329 293T403 301Q412 301 409 271T397 240Q310 235 296 236Q268 237 264 233T262 197Q268 140 263 99Q262 85 236 88T210 103Q213 178 213 182Q213 187 212 195Q211 230 203 237T149
242Q135 241 81 244Q71 245 66 268T72 293Q98 295 183 292Q194 292 199 294T207 302T210 320T211 350Q211 398 213 434Q214 449 240 448T267 434Q268 419 260 360T259 290Z" />
<glyph unicode="," glyph-name="comma" horiz-adv-x="185" d="M54 50Q53 70 64 81T96 93Q117 94 129 81T143 44Q144 21 120 -34Q115 -48 106 -65T83 -98Q74 -108 60 -100T48 -79Q50 -68 61 -45T73 -12Q74 -1 65 18T54 50Z" />
<glyph unicode="-" glyph-name="hyphen" horiz-adv-x="377" d="M90 289Q104 288 133 289T176 290Q182 288 245 289T315 291Q323 291 329 279T333 255T315 243Q288 243 218 245Q203 246 181 244T144 242Q133 243 117 241T92 239Q75 239 70 251T71 276T90 289Z" />
<glyph unicode="." glyph-name="period" horiz-adv-x="185" d="M48 44Q56 91 101 93Q121 94 132 81T146 44Q149 19 134 7T96 -6Q76 -6 60 9T48 44Z" />
<glyph unicode="/" glyph-name="slash" horiz-adv-x="622" d="M586 645Q537 586 445 464T339 326Q315 295 269 224T187 107Q166 80 148 51T108 -5Q98 -13 84 -9T56 5T47 20Q121 101 234 259T367 442Q383 462 438 534T552 676Q562 689 579 673T586 645Z" />
<glyph unicode="0" glyph-name="zero" horiz-adv-x="832" d="M697 533Q721 503 732 485T755 439T769 381Q777 293 758 223T699 111T610 44T503 16Q313 0 253 24Q175 56 118 142T60 337Q60 406 103 477T197 585Q258 629 312 648T435 668Q523 668 581 637T697 533ZM200
529Q163 501 142 448T120 332Q120 143 245 91Q330 57 499 70Q561 76 601 93T667 153Q690 192 707 253T719 369Q707 477 618 545T435 613Q311 613 200 529Z" />
<glyph unicode="1" glyph-name="one" horiz-adv-x="319" d="M197 658Q196 642 189 593T182 516Q188 314 183 182Q182 106 191 25Q193 9 179 5T149 5T132 17Q124 91 127 159Q128 185 132 241T137 324Q139 369 133 434T128 543Q129 600 126 651Q125 668 143 675T179
677T197 658Z" />
<glyph unicode="2" glyph-name="two" horiz-adv-x="613" d="M107 683Q158 679 258 679Q310 681 420 676Q470 674 513 644T557 556Q557 522 546 493T525 450T488 410T455 376Q423 340 323 257T183 120Q157 84 177 59Q181 53 196 52T238 51T272 52Q304 51 363 51T456
51Q470 51 496 55T536 54Q550 51 552 22T530 -3Q481 8 448 9Q433 10 413 7T379 4Q368 4 251 7Q239 7 186 7T101 9Q84 10 78 33T83 72Q132 146 171 191T267 274Q401 364 457 448Q478 473 488 493T497 553Q494 638 258 634Q134 632 102 632Q90 632 85 645T84 671T107
683Z" />
<glyph unicode="3" glyph-name="three" horiz-adv-x="673" d="M112 667Q128 664 188 665T275 665Q342 661 403 666T491 673Q512 674 518 651T511 610Q457 546 388 497Q380 491 350 479T315 464Q284 441 323 440Q434 436 489 417Q554 395 587 364T620 272Q618 194
607 155T556 80Q515 44 473 29T350 11Q311 9 268 11T187 13Q167 12 142 10T96 7Q84 7 79 21T78 50T101 67Q154 72 241 65T383 65Q471 76 511 110T558 224Q563 275 542 318T485 375Q466 382 452 386T425 392T398 396T368 397T329 399Q293 400 241 395T168 389Q142
388 137 408T154 441Q168 448 247 477T363 535Q404 567 418 587T418 615T359 619Q334 616 286 616T211 615Q141 608 104 621Q98 623 93 635T91 659T112 667Z" />
<glyph unicode="4" glyph-name="four" horiz-adv-x="641" d="M611 192Q621 192 626 181T626 158T603 147Q596 147 584 149T565 152T552 148T542 134T539 103Q539 90 542 64T546 22Q546 9 537 5T517 4T496 15T486 33Q486 34 490 107Q491 116 490 121T483 134T464
146T427 150Q398 150 349 149T270 148Q234 148 187 145T114 142Q87 142 80 151T82 178T108 220T147 272Q158 286 193 333T254 409Q279 437 311 463T353 501Q417 568 451 616Q462 631 474 674Q479 692 499 700T537 697T551 652Q549 634 548 600T546 554Q544 524
545 461T547 367Q547 278 546 237Q545 202 556 196T611 192ZM487 317Q485 335 490 395T495 478Q495 491 495 502T493 523T490 539T485 549T478 553T466 550T450 538T428 517T400 486Q377 460 312 393T200 265Q168 229 185 213T295 196Q324 196 364 196T434 197Q465
197 475 203T490 235T487 317Z" />
<glyph unicode="5" glyph-name="five" horiz-adv-x="648" d="M500 614Q494 618 452 615T405 612Q243 609 237 609Q191 609 179 604T163 571T160 488Q158 452 177 440T247 430Q380 438 458 431Q519 425 557 395T597 310Q603 253 598 207T569 120Q559 105 552 92T535
68T516 47T491 31T458 19Q436 14 259 14Q178 14 128 5Q116 3 108 15T104 42T125 62Q169 74 216 74T310 70T371 64Q409 64 438 71T495 99T538 161T551 266Q549 314 538 339T494 373Q460 382 384 386T252 389Q230 388 189 379T127 367Q104 364 101 417T104 523Q104
538 103 561T101 599T101 631T109 657T129 667Q156 670 190 666T243 662Q376 662 507 675Q520 676 526 667T531 645T521 623T500 614Z" />
<glyph unicode="6" glyph-name="six" horiz-adv-x="676" d="M203 395Q310 418 386 417T533 385Q585 362 610 325T636 225Q636 155 598 100T500 28Q462 18 426 17T344 18T272 20Q209 18 164 45T103 126Q68 250 79 321Q85 360 81 433T89 534Q103 583 141 615T230
653Q319 662 405 662Q434 662 477 658T546 653Q559 653 562 643T562 620T550 599T532 589Q506 589 470 601T405 614Q306 614 258 602T185 560T144 464Q140 442 139 424T153 397T203 395ZM136 264Q138 212 155 153Q162 129 167 118T191 92T243 72T334 67T480 77Q523
81 542 106T566 181Q570 235 564 270T545 327T502 358T440 370T352 370Q322 368 270 361T196 351Q136 346 136 264Z" />
<glyph unicode="7" glyph-name="seven" horiz-adv-x="569" d="M43 671Q148 663 203 662Q239 662 324 666T427 671Q443 672 473 675T518 678T541 670Q551 662 550 641T536 596Q514 552 478 487Q470 473 453 449T429 411Q424 401 412 371T389 321T368 283T353 255T338
231T311 192Q267 131 191 5Q183 -8 161 -8T124 1T119 26Q143 60 181 103T242 183Q260 211 304 292T363 397Q398 457 423 489T451 526Q452 528 459 540T468 558T474 574T477 591T472 603Q456 623 341 617Q325 616 269 613T191 610T126 609T45 612Q28 613 29 642T43
671Z" />
<glyph unicode="8" glyph-name="eight" horiz-adv-x="722" d="M147 426Q111 457 109 504Q107 562 140 604T232 664Q278 678 323 679T411 674Q541 663 560 554Q579 450 519 407Q509 400 507 395T512 386T528 378T553 368T581 355Q652 316 657 224Q660 160 653 126T614
66Q580 37 543 27T439 9Q281 -7 210 8Q146 22 105 72T61 189T79 292T149 369Q157 376 166 381T172 397T147 426ZM160 513Q162 484 186 459T245 426Q333 409 389 415Q461 421 496 449T522 533Q515 570 485 593T410 621Q395 622 367 624T323 628T286 630T251 625Q214
616 186 583T160 513ZM222 60Q260 55 324 53T466 65T575 108Q593 123 597 140T602 199Q601 285 538 330T404 368Q384 366 343 363T275 358T218 347T170 325Q137 300 125 271T114 200Q118 151 148 111T222 60Z" />
<glyph unicode="9" glyph-name="nine" horiz-adv-x="703" d="M406 225Q329 217 313 217T219 222Q137 227 105 257T62 356Q52 412 55 453T83 542Q118 612 187 644T341 671Q422 667 477 651T564 608T612 541T632 451T632 337Q621 140 560 85Q512 42 468 25T372 8T241
8Q218 8 152 5Q135 4 131 18T132 47T147 63Q160 67 193 65T240 62Q258 62 302 58T386 57Q458 63 506 106Q528 127 543 152Q582 223 557 240Q538 245 526 244T474 235T406 225ZM568 369Q564 407 564 437T559 491T550 533T533 564T506 587T466 602T409 612T333 618Q221
623 172 575T115 404Q110 328 146 298T262 263Q318 260 365 265T478 281Q541 289 556 303T568 369Z" />
<glyph unicode=":" glyph-name="colon" horiz-adv-x="185" d="M87 260Q40 263 38 309Q37 330 52 343T89 356Q113 355 124 336T135 294Q135 278 119 269T87 260ZM89 -4Q44 -1 42 44Q41 65 55 79T92 93Q117 92 129 77T142 40Q142 21 127 8T89 -4Z" />
<glyph unicode=";" glyph-name="semicolon" horiz-adv-x="185" d="M140 304Q139 279 127 271T92 261Q49 259 43 306Q40 331 55 343T93 356Q113 356 127 341T140 304ZM58 50Q55 96 95 101Q117 103 131 92T146 56Q146 40 137 18T118 -25Q101 -65 80 -88Q71 -98 57
-90T47 -68Q50 -58 61 -35T74 -1T68 23T58 50Z" />
<glyph unicode="&lt;" glyph-name="less" horiz-adv-x="433" d="M358 131Q338 138 296 157T234 183Q211 192 174 201T124 214Q95 222 77 229T56 248Q48 270 64 285Q83 301 101 313T140 337T177 360Q194 372 235 388T287 410Q294 414 315 429T350 446Q360 447 369
436T376 412T358 392Q257 358 175 306Q117 268 214 243Q222 241 255 226T309 207Q321 205 331 202T353 194T369 187Q376 185 379 169T377 139T358 131Z" />
<glyph unicode="=" glyph-name="equal" horiz-adv-x="447" d="M100 372Q110 371 147 371T198 369Q214 368 265 365T325 361T379 363Q387 364 389 351T388 325T377 311Q354 310 314 314T254 318Q247 318 236 317T218 316Q207 316 163 317T104 318Q91 318 86 326T83
345T90 363T100 372ZM92 225Q100 225 182 225T285 224Q316 222 347 226T396 230Q410 230 407 202T382 173T303 177T213 180Q196 180 155 177T97 174Q78 174 74 187T76 213T92 225Z" />
<glyph unicode="&gt;" glyph-name="greater" horiz-adv-x="433" d="M91 439Q103 435 122 427T154 414Q277 378 319 364Q330 360 344 357T364 351T377 345T389 335Q394 330 394 308T385 278Q362 260 327 245T272 217Q198 168 94 133Q86 131 81 141T78 165T91 181Q94
182 111 186T137 194Q141 196 201 225T286 271Q303 282 310 287T321 300T319 313T295 326Q282 332 197 354T80 393Q62 403 69 423T91 439Z" />
<glyph unicode="?" glyph-name="question" horiz-adv-x="534" d="M68 673Q302 684 370 670Q414 661 436 649T472 607T492 524Q502 427 464 389Q405 330 326 334Q273 337 259 331T243 309Q243 297 245 256T247 202Q246 194 232 187T204 182T190 202Q190 229 188
281Q185 347 207 365T301 381Q381 380 413 407T443 498Q440 603 337 622Q301 629 203 623Q177 622 135 617T60 611Q45 611 50 641T68 673ZM164 21T165 44T180 77T215 87Q231 86 241 72T254 35Q255 16 241 6T205 -5Q186 -5 175 8Z" />
<glyph unicode="@" glyph-name="at" horiz-adv-x="779" d="M634 246Q689 273 684 354Q680 430 660 483T607 565T538 605T456 618Q397 620 352 614T264 589T190 532T143 436Q131 390 129 318T139 172Q158 52 348 54Q470 57 508 56Q535 56 566 57T637 61T695 65Q709
66 717 52T721 22T699 7Q665 6 619 8T552 11Q524 11 471 10T387 9T316 11T251 20Q90 59 75 240Q64 363 94 454T183 598Q228 640 286 655T426 669Q497 667 549 652T644 603T711 505T741 350Q745 283 711 250T602 198Q559 188 496 179T400 170Q320 172 288 213T253
328Q249 401 300 454T425 506Q440 506 456 503T477 499T491 503Q507 520 526 514T548 489Q550 468 550 390T552 288Q552 268 554 257T563 237T588 229T634 246ZM504 309Q506 396 506 398Q504 427 485 437T420 450Q367 453 331 417T298 299Q299 277 306 263T321
241T348 230T375 226T409 224Q435 223 451 224T479 229T495 239T502 256T504 279T504 309Z" />
<glyph unicode="A" glyph-name="A" horiz-adv-x="768" d="M153 133Q151 127 145 113Q130 69 121 29Q117 12 100 9T67 12T56 32Q63 53 76 82T97 131Q103 148 177 336Q190 367 220 445T273 576T313 664Q317 673 345 678T381 674Q394 657 410 612T438 547Q461 502
510 433T574 340Q582 325 608 278T654 198T694 134Q709 113 728 79T757 29Q768 10 739 -2T699 4L641 102L625 130Q611 153 603 158T575 163Q553 163 512 163T450 161H273Q248 161 219 160T180 158Q162 158 153 133ZM559 251L539 286Q525 311 470 396T391 527Q387
534 382 546T372 566Q346 620 324 570Q307 532 275 441T228 316Q225 308 194 233Q188 220 196 216T247 212Q286 212 360 216T462 220Q479 221 508 220T553 218Q570 219 570 225Q571 230 559 251Z" />
<glyph unicode="B" glyph-name="B" horiz-adv-x="791" d="M597 415Q649 398 682 370Q755 310 726 175Q706 81 649 40Q622 19 596 13T526 5Q490 4 355 9T176 5Q143 1 132 8T124 42Q128 42 128 168Q128 182 127 265T126 380Q126 406 124 464T124 541L129 615Q130
642 149 660T196 679Q256 681 359 670Q378 668 425 668T490 665Q539 658 571 618Q579 607 586 597T600 576T609 554T613 528Q613 483 577 441Q567 431 569 427T597 415ZM260 441Q295 442 362 448T472 454Q515 454 532 473T550 528Q550 543 541 556T522 582Q496
616 471 619Q456 622 410 620T344 619Q332 620 306 624T264 628Q214 628 193 610Q187 604 184 596T179 575T176 547T174 507Q172 463 187 450T260 441ZM171 338Q171 310 177 243T184 153Q184 134 180 110T176 80Q176 65 185 62T230 60Q273 62 343 58T460 55Q586
58 622 84Q640 98 647 127T660 188Q686 298 629 347Q592 379 555 390T461 401Q316 401 289 400Q279 399 259 401T229 403Q194 403 183 391T171 338Z" />
<glyph unicode="C" glyph-name="C" horiz-adv-x="665" d="M572 582Q560 584 538 589T498 597T461 600Q407 602 353 601T259 581Q217 562 193 531T150 449Q133 405 130 382T131 285Q132 267 133 250T136 219T141 194T151 175Q163 161 175 140T208 99Q223 85 235
77T261 65T292 60T334 56Q337 56 438 59Q452 59 482 63T532 68Q586 68 631 46Q639 42 639 30T631 9T606 3Q585 8 559 8T487 6T425 1Q406 -1 372 4T321 9Q286 8 263 11T224 23T194 46T161 78Q108 128 90 174T67 296Q64 343 69 370T84 418T98 458Q110 529 150 570Q238
661 436 655Q443 655 480 657T541 654T587 627Q606 609 601 594T572 582Z" />
<glyph unicode="D" glyph-name="D" horiz-adv-x="746" d="M145 690Q172 688 246 688T374 680T483 649Q581 609 633 524T688 323Q691 204 611 110T422 6Q347 -4 281 -4T185 -1Q162 0 153 1T135 9T125 30Q123 43 123 87Q122 133 122 216Q120 245 122 295T124 365Q124
372 121 450T119 579Q120 596 119 623T117 663Q117 691 145 690ZM169 582Q165 475 174 217Q177 161 175 67Q175 61 176 58T181 53T196 51Q302 49 398 60Q490 71 562 155T634 337Q632 433 600 494T492 590Q386 638 182 636Q175 636 171 623Q171 612 169 582Z" />
<glyph unicode="E" glyph-name="E" horiz-adv-x="691" d="M177 234Q177 212 184 79Q185 68 186 64T191 57T205 55Q234 57 286 59Q315 60 454 55Q471 55 520 56T595 58Q613 58 611 28T592 -2Q567 -2 526 0T467 3Q440 3 386 5T294 7Q267 6 227 3T165 -1Q149 -2 141
12T130 57Q116 280 119 531Q119 633 118 646Q116 672 128 681T169 687Q213 683 285 680Q320 679 370 683T443 688Q503 691 595 686Q612 685 613 658T599 631Q571 631 525 633T455 636Q439 635 406 633T356 631T297 631Q224 633 205 632Q189 631 184 625T176 601T174
531Q174 395 175 336Q175 316 189 312T268 309H442Q540 307 607 307Q620 307 622 281T608 253Q543 251 441 253Q424 253 373 254T282 254Q214 253 196 250T177 234Z" />
<glyph unicode="F" glyph-name="F" horiz-adv-x="697" d="M176 178Q176 164 175 132T173 73T178 15Q180 3 171 -2T150 -5T128 7T119 30Q124 135 124 178Q124 220 122 279T119 378Q119 396 123 450T127 528Q123 607 120 632Q116 661 122 670T158 681Q189 682 290
676Q333 674 477 674Q509 674 548 679T615 684Q632 684 637 669T633 638T606 621Q542 616 471 623Q445 625 356 625T264 626Q208 628 193 615T178 549Q178 527 175 480T172 413Q172 402 171 374T170 336Q171 307 183 301T233 297Q277 300 425 304Q540 308 594 303Q607
302 616 291T627 269T624 248T605 241Q579 245 545 245T461 243T390 241Q373 241 334 244T268 246Q206 242 191 230T176 178Z" />
<glyph unicode="G" glyph-name="G" horiz-adv-x="762" d="M590 12Q566 12 519 13T449 15Q425 15 372 9T294 9Q234 17 192 37T125 82T86 145T67 220T61 308Q59 406 114 492T257 628T442 681Q474 682 507 675T563 666Q589 665 641 667Q658 667 666 656T673 632T662
619Q604 613 586 615Q563 616 544 621T495 626Q424 623 374 613T289 584T231 544T180 489Q118 412 119 329Q120 292 122 267T130 210T148 157T180 116T230 82T302 63Q344 59 370 59T443 63T513 66Q588 66 607 77T624 118Q624 122 620 174T615 245Q615 290 629 317Q639
335 657 333T678 312Q685 270 685 238Q685 220 686 197T688 163Q689 143 686 86T690 14Q692 3 681 -5T657 -14Q643 -14 623 -1T590 12Z" />
<glyph unicode="H" glyph-name="H" horiz-adv-x="848" d="M675 338Q675 375 680 439T684 545Q683 591 678 629T672 681Q672 700 699 703T728 690Q733 648 735 547Q736 503 733 439T729 338Q729 310 732 257T734 168Q732 141 733 94T734 20Q734 9 718 5T687 5T672
23Q674 55 672 86T669 140Q668 156 671 187T674 227Q675 239 665 244T608 251T463 247Q427 245 362 247T268 249Q249 249 228 249T198 248Q176 248 176 232Q176 212 174 154Q174 123 176 103T184 54T193 10Q194 4 182 -1T157 -6T139 0Q129 20 126 43T122 103T121
156Q118 210 122 286T126 396Q126 424 122 465T118 530Q118 545 119 591T118 660Q117 674 144 674T172 664Q174 634 174 585T174 523Q174 498 177 461T181 395Q181 362 179 310Q179 301 182 299T197 297H295Q308 297 332 295T365 293Q391 294 464 299Q512 302 632
298Q663 297 669 303T675 338Z" />
<glyph unicode="I" glyph-name="I" horiz-adv-x="321" d="M196 643Q196 623 194 603T193 563Q193 539 193 487T195 413Q195 400 193 380T190 354Q190 341 192 224Q192 218 193 141T198 27Q199 10 186 0T157 -6T140 15Q132 103 129 179Q129 180 126 412Q126 432
128 481T130 557Q128 655 127 662Q126 675 136 679T160 680T184 666T196 643Z" />
<glyph unicode="J" glyph-name="J" horiz-adv-x="665" d="M39 57Q53 58 80 61T118 65T150 67T184 69T218 69T261 68Q275 68 307 65T354 63Q466 67 482 100Q500 134 504 182Q507 218 504 295T501 402Q503 442 501 496T500 592T510 674Q512 684 530 686T564 683T574
665Q559 631 558 524T559 347Q560 268 559 226T544 129Q526 62 493 38T410 12Q330 7 288 8T183 13Q165 14 111 12T40 12Q28 14 29 35T39 57Z" />
<glyph unicode="K" glyph-name="K" horiz-adv-x="748" d="M230 288Q245 308 273 329T320 368Q362 409 428 485Q449 508 473 532T512 572L617 683Q623 690 637 678T656 650T649 619Q637 609 609 593T560 556Q538 533 509 497T470 449Q397 365 376 345Q358 328 317
295T251 239T230 207Q232 202 239 198T261 190T281 182Q317 164 419 130Q581 74 684 57Q706 53 717 37T711 9T648 1Q619 5 583 20T520 41Q485 48 439 69T370 98Q331 110 316 115T264 137Q206 162 192 149T180 67Q180 49 181 37T183 10Q183 -5 157 -5T131 7Q131
24 133 44T134 84Q133 111 133 145T133 207Q133 240 131 307T128 417V556Q127 581 122 610T114 657Q112 678 139 680T172 663Q178 635 178 612T178 560Q179 530 176 483T173 410Q173 360 182 258Q184 234 200 250T230 288Z" />
<glyph unicode="L" glyph-name="L" horiz-adv-x="671" d="M183 654Q172 546 171 497Q171 480 175 452T180 397Q180 362 177 310T174 228Q174 212 173 184T172 139T174 104T182 73Q186 65 199 64T235 65T269 66Q299 65 363 61T440 56T501 58Q561 66 629 57Q646
55 650 40T648 11T632 -2Q542 11 524 11Q490 12 451 8T379 4Q366 4 325 6T261 8T210 5T168 1Q141 2 133 18T127 74Q130 118 128 167T125 237Q127 371 126 394Q124 442 123 534T118 667Q117 680 127 684T150 686T173 674T183 654Z" />
<glyph unicode="M" glyph-name="M" horiz-adv-x="949" d="M116 -3T117 13T117 78T117 163Q117 186 123 322T128 521Q127 552 123 592T117 663Q116 684 143 685T179 670Q197 635 220 572T266 465Q348 311 407 224Q469 133 481 125Q492 117 503 135Q504 136 512
150Q551 216 598 331T648 455Q695 562 704 580Q709 590 730 650Q737 670 771 677T809 666Q825 588 826 583Q834 533 835 498T835 421T833 351Q833 333 831 276T829 190Q829 177 830 105T830 17Q830 4 814 -2T784 -3T773 19Q777 44 777 70T777 135T776 190Q776 219
774 294T772 387Q772 419 775 481T773 556Q771 567 766 568T754 556Q742 531 722 480T693 412Q671 362 654 324T613 238T558 138Q547 120 537 89T513 39Q506 29 488 29T458 42Q441 65 425 90T390 148T363 196Q304 296 247 404Q226 446 191 509Q184 522 178 516Q176
514 176 508Q179 451 169 174Q169 74 173 10Q174 -6 145 -5Z" />
<glyph unicode="N" glyph-name="N" horiz-adv-x="864" d="M125 14L121 116Q115 257 121 488Q121 511 119 553T117 628Q117 654 136 667T168 663Q189 635 207 606T255 542Q281 511 336 452T426 349Q448 320 505 271T571 212Q619 168 646 141Q675 113 684 121T696
175Q700 202 697 311T694 431Q694 452 693 500T692 591T695 678Q696 690 714 694T748 690T761 666Q742 582 742 428Q742 403 747 326T749 193Q748 173 746 141T743 97T744 40Q746 15 723 6T680 16Q649 46 609 89T546 153Q434 264 267 464Q218 526 201 526T184 451Q184
406 178 315T174 149Q174 139 181 29Q182 11 154 0T125 14Z" />
<glyph unicode="O" glyph-name="O" horiz-adv-x="780" d="M726 370Q733 257 699 189Q658 109 587 66Q521 27 404 17Q294 7 232 43Q143 93 97 210Q70 279 68 331Q65 392 74 443T105 539T168 614T265 658Q333 676 378 675Q534 671 626 603Q675 567 698 512T726 370ZM122
312Q126 247 154 194T227 109Q289 67 397 72Q487 78 556 116Q623 152 650 216Q680 285 676 358Q671 442 654 493T593 575Q532 618 376 621Q256 624 196 563Q155 520 137 452T122 312Z" />
<glyph unicode="P" glyph-name="P" horiz-adv-x="773" d="M185 180Q178 126 202 32Q206 15 190 4T154 -5T134 15Q132 40 124 190Q122 227 125 294T124 404Q122 435 125 491T124 579Q116 635 123 659T165 683Q188 682 221 676T274 668Q313 665 387 668T514 665Q570
660 617 633T691 562Q729 495 721 402Q718 359 698 335T638 281Q580 229 350 221Q314 219 279 219T216 209T185 180ZM223 271Q249 273 291 273T351 274Q437 277 505 292T610 335Q639 357 648 365T670 393T684 434Q689 510 658 551T545 606Q491 615 363 617Q299
618 262 621Q244 621 225 623T191 615T175 581Q173 543 176 479T180 407Q181 338 184 310T195 276T223 271Z" />
<glyph unicode="Q" glyph-name="Q" horiz-adv-x="805" d="M648 77Q663 59 678 44T723 1T766 -38Q786 -56 767 -81T728 -88Q704 -67 681 -39T645 2Q614 35 598 46T572 53Q527 34 474 25Q429 19 393 13T317 11T242 33Q186 61 126 157Q95 206 78 259T61 350Q62 414
81 461T142 561Q192 622 248 644T388 665Q493 662 544 647T651 584Q705 538 724 485T745 353Q747 283 738 253T695 168Q691 161 681 151T663 134T648 116T641 97T648 77ZM537 125Q536 126 515 145T487 171Q469 190 495 206T537 201Q552 180 580 150Q609 125 642
175Q698 259 696 345Q696 374 696 398T691 444T675 487T641 535Q580 604 495 614Q274 642 186 527Q113 435 120 334Q127 234 157 178T266 83Q311 64 377 65T509 84Q544 93 548 103T537 125Z" />
<glyph unicode="R" glyph-name="R" horiz-adv-x="824" d="M176 127Q172 91 172 76T176 19Q176 6 163 2T137 5T123 30Q121 79 121 171Q119 245 127 431Q128 485 116 622Q115 636 126 654T150 673Q202 673 236 673T287 671T344 666T423 660Q487 656 539 642T636
599T705 523T730 410Q730 368 720 340T679 270Q658 241 608 223T503 199Q495 195 443 198T386 201Q378 201 357 203T323 205T310 201Q310 184 396 154Q428 143 495 130T581 111L765 51Q782 45 790 30T793 3T771 -3Q721 14 643 33T522 65Q361 112 347 117Q334 122
281 148T210 179Q194 183 187 169T176 127ZM226 248Q244 248 301 247T404 246T496 253Q561 262 617 292Q641 304 659 335T677 396Q677 596 458 611Q352 616 255 627Q216 632 194 617T175 561Q180 486 175 385Q171 292 179 270T226 248Z" />
<glyph unicode="S" glyph-name="S" horiz-adv-x="767" d="M584 620Q548 614 498 614Q317 612 301 611Q283 610 268 609T237 607T209 603T184 597T162 589Q110 565 105 507Q103 484 117 467T157 441T205 427T254 419Q348 410 385 410T503 411Q582 414 642 373Q679
348 705 303T732 215Q732 133 672 82T520 9Q487 1 464 0T405 -1T346 1Q179 -5 128 3Q115 5 111 15T108 37T119 57T136 65Q201 55 376 57Q429 58 454 61T528 77Q675 112 675 232Q675 261 659 290T618 336Q597 350 557 352T491 352Q389 350 364 351T223 365Q155 372
101 418T53 530Q57 573 78 601T144 652Q193 676 304 673Q411 670 455 670Q511 670 571 682Q586 685 594 670T600 639T584 620Z" />
<glyph unicode="T" glyph-name="T" horiz-adv-x="678" d="M305 625Q288 627 235 624T165 621Q145 622 120 620T78 618T54 637T52 674T76 691Q149 683 185 679Q206 677 237 676T279 674Q353 669 461 669Q475 669 541 671T629 671Q650 670 647 643T630 617Q608 619
578 622T525 627Q496 627 430 625Q402 623 396 612T389 544Q389 516 388 452T386 329T385 223Q386 184 391 127T394 19Q393 6 381 1T355 -4T331 5T322 22Q336 88 335 143Q332 266 332 270Q329 426 330 445Q331 467 335 510T340 574Q340 622 305 625Z" />
<glyph unicode="U" glyph-name="U" horiz-adv-x="846" d="M168 664Q166 589 166 476Q166 302 169 249Q168 207 171 179T197 113Q217 80 232 69T284 52Q309 45 342 51T393 57T482 55T574 56Q623 60 643 81T678 168Q687 210 688 248T687 334T686 417Q687 442 691
491T695 573Q695 588 693 600T687 628T682 656Q680 669 694 678T724 685T742 664Q746 633 748 571Q753 436 747 353Q746 317 747 279T748 211T737 138Q720 59 683 26T577 -13Q533 -16 496 -11T430 -5Q422 -5 352 -9T266 -7Q246 -4 228 7T199 31T168 67T136 104Q114
127 109 189T105 302Q103 342 107 394T111 476Q111 600 104 660Q102 676 118 683T151 686T168 664Z" />
<glyph unicode="V" glyph-name="V" horiz-adv-x="723" d="M103 656L133 571Q143 545 171 489T206 418Q224 376 263 311T308 234Q315 222 329 188T351 140Q370 104 378 94T392 90T406 123Q436 211 439 217Q456 256 494 328T549 445Q560 476 587 534T629 643Q634
659 654 666T690 669T699 647Q630 478 575 362Q565 341 534 283T480 170Q468 142 454 86T422 11Q408 -3 386 -10T358 -4Q350 20 341 40T320 82T303 114Q292 137 267 185T222 274T181 363Q129 485 85 549Q71 569 62 593T45 641Q39 657 51 667T80 675T103 656Z" />
<glyph unicode="W" glyph-name="W" horiz-adv-x="1032" d="M102 652Q111 604 132 550T182 436Q197 402 212 349T239 265L272 182Q296 125 306 125T334 178Q337 186 346 212T360 251Q381 312 399 371T431 492Q435 509 442 534T453 574Q455 585 455 610T455 650Q457
669 468 674T495 667T518 624Q542 539 591 425Q602 398 621 361T652 297Q665 269 693 215T738 117Q744 103 755 116T773 154Q794 226 816 278Q865 394 886 460T935 658Q939 675 958 685T994 691T1006 669Q977 545 945 454Q922 388 869 256T780 4Q772 -20 747 -13T716
18Q703 67 694 92Q678 136 648 196T605 283Q569 365 527 470Q518 494 509 501T493 504T484 484Q464 393 439 332Q436 325 420 293T396 235Q384 199 377 169T363 97T349 28Q345 10 308 13T266 38Q254 98 242 130T206 220Q201 233 174 303T130 411Q75 541 68 564Q45
637 41 657Q37 674 51 680T82 678T102 652Z" />
<glyph unicode="X" glyph-name="X" horiz-adv-x="674" d="M319 377L192 555Q179 574 157 597T125 640Q116 657 128 670T160 682T191 661Q259 544 284 512Q292 501 317 467T348 427Q355 420 368 426T391 448Q416 490 458 550T529 662Q537 677 560 680T591 673T583
639Q567 621 554 597T522 553Q475 503 435 437Q428 426 415 408T396 378T388 357Q387 347 392 337T404 318T426 291T453 256Q470 233 498 204T543 151Q556 134 576 110T608 68T633 27Q641 12 626 3T589 -5T561 14Q543 55 523 86T463 166T404 243Q382 276 371 291T351
304T324 273Q305 245 277 200T229 127L132 -10Q121 -25 103 -24T78 -11T79 17Q99 44 133 81T188 149L283 288Q331 359 319 377Z" />
<glyph unicode="Y" glyph-name="Y" horiz-adv-x="728" d="M252 393Q238 416 193 467T141 527Q120 552 93 589T50 645Q40 658 52 667T85 674T112 659Q134 618 153 591T201 533T250 473Q261 459 281 422T316 369Q336 344 360 321T398 300Q423 305 467 389Q484 420
520 462T567 518Q581 538 595 566T625 615Q632 626 637 640T650 665Q660 679 680 680T711 671T713 646Q709 640 677 595Q658 569 603 485T508 353Q482 321 475 313T454 285T441 264T436 245T433 223T435 195T436 152Q436 125 430 92T425 20Q425 3 414 -3T389 0T374
29Q370 65 374 108T377 179Q375 214 373 224T359 251Q359 252 318 302T252 393Z" />
<glyph unicode="Z" glyph-name="Z" horiz-adv-x="638" d="M158 669Q187 668 280 667T402 665Q421 665 465 665T534 666T582 660T602 643Q596 605 577 576T530 517T490 470Q473 444 452 414T408 347Q387 313 336 264T264 187Q249 166 223 135T184 85T175 59Q177
54 182 51T195 47T215 46T243 45Q275 44 334 46T421 49T499 54T574 59Q587 58 595 48T604 25T603 3T590 -7Q478 -3 417 -3Q390 -3 331 -7T242 -10Q211 -9 179 -9T122 -3T92 12Q80 42 101 73T167 144T229 209Q245 230 307 301T395 413Q414 444 435 470T477 530Q486
545 501 563T520 592T521 611Q517 619 500 619T449 617T394 615Q223 621 147 606Q114 599 105 615T113 651T158 669Z" />
<glyph unicode="[" glyph-name="bracketleft" horiz-adv-x="344" d="M312 639Q293 638 263 639T217 641Q170 641 160 635T150 605T146 538T142 472Q145 335 142 225T140 73Q141 54 145 49T171 43Q282 40 303 42Q313 43 317 32T320 8T311 -5Q290 -6 201 -4Q124
-2 106 3T90 33Q99 145 98 178Q97 238 97 281T98 360T96 415Q92 447 92 524T90 625Q88 644 88 657T97 679T123 689Q133 691 168 691T213 691Q231 691 262 691T310 693Q324 694 323 667T312 639Z" />
<glyph unicode="\" glyph-name="backslash" horiz-adv-x="622" d="M590 17Q597 9 574 -2T543 -4Q488 63 440 131T366 232Q353 248 236 408T43 650Q37 657 54 675T83 680Q107 650 135 611T178 552L335 344L590 17Z" />
<glyph unicode="]" glyph-name="bracketright" horiz-adv-x="357" d="M49 47Q67 48 96 45T144 41Q161 42 173 41T193 41T206 43T214 47T218 55T221 66Q224 104 224 126T222 199T219 258Q215 465 211 561Q209 606 202 622T174 640Q157 643 109 641T46 640Q36 640
32 654T29 681T38 693Q48 690 123 690T203 691Q242 690 254 682T268 651Q269 640 267 597T265 509Q269 307 267 275Q264 213 274 88Q278 40 268 21T229 -1L148 -3Q105 -4 51 -1Q37 0 38 23T49 47Z" />
<glyph unicode="^" glyph-name="asciicircum" horiz-adv-x="377" d="M90 289Q104 288 133 289T176 290Q182 288 245 289T315 291Q323 291 329 279T333 255T315 243Q288 243 218 245Q203 246 181 244T144 242Q133 243 117 241T92 239Q75 239 70 251T71 276T90 289Z" />
<glyph unicode="_" glyph-name="underscore" horiz-adv-x="333" d="M345 -135H225H10Q-5 -135 -8 -111T10 -87Q30 -87 100 -89Q136 -90 179 -90T279 -88T345 -87Q361 -87 366 -99T364 -123T345 -135Z" />
<glyph unicode="`" glyph-name="grave" horiz-adv-x="500" d="M142 823Q161 815 194 796T233 773Q254 762 272 755T310 737Q331 726 310 714T275 707Q213 730 172 749Q163 753 154 756T140 762T129 767T114 777Q96 791 111 810T142 823Z" />
<glyph unicode="a" glyph-name="a" horiz-adv-x="768" d="M153 133Q151 127 145 113Q130 69 121 29Q117 12 100 9T67 12T56 32Q63 53 76 82T97 131Q103 148 177 336Q190 367 220 445T273 576T313 664Q317 673 345 678T381 674Q394 657 410 612T438 547Q461 502
510 433T574 340Q582 325 608 278T654 198T694 134Q709 113 728 79T757 29Q768 10 739 -2T699 4L641 102L625 130Q611 153 603 158T575 163Q553 163 512 163T450 161H273Q248 161 219 160T180 158Q162 158 153 133ZM559 251L539 286Q525 311 470 396T391 527Q387
534 382 546T372 566Q346 620 324 570Q307 532 275 441T228 316Q225 308 194 233Q188 220 196 216T247 212Q286 212 360 216T462 220Q479 221 508 220T553 218Q570 219 570 225Q571 230 559 251Z" />
<glyph unicode="b" glyph-name="b" horiz-adv-x="791" d="M602 395Q611 392 629 387T656 377T675 364Q713 331 728 273T727 144Q717 104 697 80T641 29Q613 8 588 2T517 -4Q270 -6 180 2Q147 5 134 13T119 40Q117 60 121 90T128 166Q129 190 130 266T133 368Q134
387 134 445T137 539L145 635Q150 681 214 676Q249 671 301 674T386 677Q444 676 518 665Q581 656 607 617Q647 558 645 517Q642 473 596 424Q577 403 602 395ZM203 430Q224 424 268 425T393 431T502 435Q544 434 562 457T582 518Q583 543 556 582Q534 615 498
620Q457 626 370 626Q356 626 326 624T280 623Q215 625 203 614Q192 604 190 576T186 504Q184 477 185 464T191 445T203 430ZM176 325Q175 297 179 235T183 150Q183 140 182 128T181 110T180 96T184 84Q195 63 226 56Q284 43 339 43T453 47Q580 49 616 73Q641 89
652 108T667 161Q672 230 666 269T632 333Q597 364 563 373T466 383Q306 385 297 385Q226 384 202 371T176 325Z" />
<glyph unicode="c" glyph-name="c" horiz-adv-x="665" d="M572 582Q560 584 538 589T498 597T461 600Q407 602 353 601T259 581Q217 562 193 531T150 449Q133 405 130 382T131 285Q132 267 133 250T136 219T141 194T151 175Q163 161 175 140T208 99Q223 85 235
77T261 65T292 60T334 56Q337 56 438 59Q452 59 482 63T532 68Q586 68 631 46Q639 42 639 30T631 9T606 3Q585 8 559 8T487 6T425 1Q406 -1 372 4T321 9Q286 8 263 11T224 23T194 46T161 78Q108 128 90 174T67 296Q64 343 69 370T84 418T98 458Q110 529 150 570Q238
661 436 655Q443 655 480 657T541 654T587 627Q606 609 601 594T572 582Z" />
<glyph unicode="d" glyph-name="d" horiz-adv-x="746" d="M145 690Q172 688 246 688T374 680T483 649Q581 609 633 524T688 323Q691 204 611 110T422 6Q347 -4 281 -4T185 -1Q162 0 153 1T135 9T125 30Q123 43 123 87Q122 133 122 216Q120 245 122 295T124 365Q124
372 121 450T119 579Q120 596 119 623T117 663Q117 691 145 690ZM169 582Q165 475 174 217Q177 161 175 67Q175 61 176 58T181 53T196 51Q302 49 398 60Q490 71 562 155T634 337Q632 433 600 494T492 590Q386 638 182 636Q175 636 171 623Q171 612 169 582Z" />
<glyph unicode="e" glyph-name="e" horiz-adv-x="719" d="M180 247Q180 238 186 81Q187 52 247 51T348 57Q424 61 487 59Q553 57 625 58Q642 59 642 34T631 5Q605 0 587 0T540 3T497 5Q478 5 434 5T348 3Q288 2 194 -4Q156 -6 143 15T129 74Q126 380 125 527Q125
600 123 620Q120 651 129 668T172 686Q199 687 251 683T328 679Q365 679 397 680T446 682Q452 682 507 686T598 690Q615 689 617 663T603 637Q570 637 522 635T459 632Q437 631 363 633Q331 634 215 626Q198 625 193 621T184 596T180 528Q180 499 179 436T178 348Q179
329 194 322T240 314T315 316Q421 319 476 318Q607 315 630 316Q643 316 646 290T632 263Q597 262 439 265Q331 267 325 267Q250 267 215 264T180 247Z" />
<glyph unicode="f" glyph-name="f" horiz-adv-x="731" d="M179 10Q178 -2 168 -9T146 -16T125 -9T116 12Q124 144 125 174Q125 213 124 272T124 374V524Q124 621 126 631Q131 658 140 666T177 675Q200 676 239 672T300 668Q322 667 413 668T521 670Q557 669 596
676T649 685Q666 686 673 668T674 632T649 613Q620 612 574 614T510 616Q458 615 280 624Q222 627 200 611T176 543Q175 517 176 467T177 407Q177 396 176 373T174 340Q174 311 185 304T234 299Q350 303 442 299Q605 293 621 293Q638 293 642 279T639 251T621 236Q593
236 535 240T439 245Q429 245 377 246T295 248T232 246T190 237Q179 228 178 197T180 120T179 10Z" />
<glyph unicode="g" glyph-name="g" horiz-adv-x="767" d="M584 12Q560 12 514 13T446 15Q403 14 359 14T272 23Q63 63 58 302Q56 376 87 453T169 581Q267 676 419 681Q448 682 522 678Q560 677 625 679Q641 679 648 665T653 637T640 623Q556 623 546 624Q401 634
326 610T187 509Q156 471 136 420T116 323Q116 320 116 313Q117 265 119 242T130 183T156 129T205 96T286 78Q478 66 515 66Q568 66 593 72T623 85T633 113Q637 127 637 148T635 194T633 230Q633 243 628 269T623 312Q624 332 654 334T685 315Q685 261 687 235Q688
222 691 193T696 146Q697 122 692 -6Q691 -17 682 -25T659 -34Q650 -34 643 -27T630 -11T613 5T584 12Z" />
<glyph unicode="h" glyph-name="h" horiz-adv-x="848" d="M675 338Q675 375 680 439T684 545Q683 591 678 629T672 681Q672 700 699 703T728 690Q733 648 735 547Q736 503 733 439T729 338Q729 310 732 257T734 168Q732 141 733 94T734 20Q734 9 718 5T687 5T672
23Q674 55 672 86T669 140Q668 156 671 187T674 227Q675 239 665 244T608 251T463 247Q427 245 362 247T268 249Q249 249 228 249T198 248Q176 248 176 232Q176 212 174 154Q174 123 176 103T184 54T193 10Q194 4 182 -1T157 -6T139 0Q129 20 126 43T122 103T121
156Q118 210 122 286T126 396Q126 424 122 465T118 530Q118 545 119 591T118 660Q117 674 144 674T172 664Q174 634 174 585T174 523Q174 498 177 461T181 395Q181 362 179 310Q179 301 182 299T197 297H295Q308 297 332 295T365 293Q391 294 464 299Q512 302 632
298Q663 297 669 303T675 338Z" />
<glyph unicode="i" glyph-name="i" horiz-adv-x="321" d="M196 643Q196 623 194 603T193 563Q193 539 193 487T195 413Q195 400 193 380T190 354Q190 341 192 224Q192 218 193 141T198 27Q199 10 186 0T157 -6T140 15Q132 103 129 179Q129 180 126 412Q126 432
128 481T130 557Q128 655 127 662Q126 675 136 679T160 680T184 666T196 643Z" />
<glyph unicode="j" glyph-name="j" horiz-adv-x="665" d="M39 57Q53 58 80 61T118 65T150 67T184 69T218 69T261 68Q275 68 307 65T354 63Q466 67 482 100Q500 134 504 182Q507 218 504 295T501 402Q503 442 501 496T500 592T510 674Q512 684 530 686T564 683T574
665Q559 631 558 524T559 347Q560 268 559 226T544 129Q526 62 493 38T410 12Q330 7 288 8T183 13Q165 14 111 12T40 12Q28 14 29 35T39 57Z" />
<glyph unicode="k" glyph-name="k" horiz-adv-x="748" d="M230 288Q245 308 273 329T320 368Q362 409 428 485Q449 508 473 532T512 572L617 683Q623 690 637 678T656 650T649 619Q637 609 609 593T560 556Q538 533 509 497T470 449Q397 365 376 345Q358 328 317
295T251 239T230 207Q232 202 239 198T261 190T281 182Q317 164 419 130Q581 74 684 57Q706 53 717 37T711 9T648 1Q619 5 583 20T520 41Q485 48 439 69T370 98Q331 110 316 115T264 137Q206 162 192 149T180 67Q180 49 181 37T183 10Q183 -5 157 -5T131 7Q131
24 133 44T134 84Q133 111 133 145T133 207Q133 240 131 307T128 417V556Q127 581 122 610T114 657Q112 678 139 680T172 663Q178 635 178 612T178 560Q179 530 176 483T173 410Q173 360 182 258Q184 234 200 250T230 288Z" />
<glyph unicode="l" glyph-name="l" horiz-adv-x="689" d="M193 660Q192 629 189 558T185 425Q184 352 177 203Q172 109 191 71Q195 64 202 60T220 54T243 52T269 51Q325 49 380 54T468 59Q542 56 565 57Q581 58 608 62T646 68Q663 69 669 54T670 21T655 4Q622
0 535 2T416 3Q397 3 341 -2T264 -7Q239 -7 222 -5T194 -3Q163 -3 145 11T123 62Q120 101 120 118T124 172T128 229Q132 374 131 421Q130 449 128 498T126 578Q126 586 128 621T128 664Q126 681 142 687T176 685T193 660Z" />
<glyph unicode="m" glyph-name="m" horiz-adv-x="951" d="M110 12Q110 127 111 161Q116 381 129 519Q132 559 132 571T130 612T128 661Q127 682 164 684T209 670Q254 575 288 477Q308 417 342 333T389 212Q413 146 432 119T464 94T493 122Q502 136 517 160T544
204T567 243Q595 293 661 443Q741 625 752 655Q760 675 789 680T822 666Q823 658 825 646T829 627T832 608T833 583Q828 460 827 351Q825 155 837 18Q838 5 823 -2T792 -4T774 19Q772 39 773 77T774 141Q773 184 773 284T775 417Q775 435 776 457T777 486T777 511Q776
525 774 530T763 526Q758 516 748 488T732 449Q722 426 705 397T683 358Q664 315 646 283T595 202T541 115Q531 98 521 85T497 56T473 28Q467 20 446 26T414 45Q390 77 375 114T349 186Q336 221 314 273T272 382Q213 558 196 561Q186 563 180 495T171 307T167 173Q165
139 169 85T172 9Q170 -7 140 -7T110 12Z" />
<glyph unicode="n" glyph-name="n" horiz-adv-x="887" d="M118 12Q113 26 115 63T118 114Q118 169 122 300T124 496Q123 521 123 568T122 646Q121 670 153 676T200 668Q210 659 232 627Q268 578 294 546T364 464T444 370Q590 195 600 184Q710 68 718 163Q732 332
725 464Q721 543 723 664Q723 677 741 682T775 681T788 657Q771 552 778 460Q779 395 779 376T775 279T770 180Q769 160 771 23Q771 -2 747 -8T705 4Q680 30 635 81T564 156Q519 197 467 254T381 353T280 479Q246 521 225 535T192 536T177 471Q174 435 176 320T178
151Q178 122 180 78T182 15Q182 4 167 -2T136 -6T118 12Z" />
<glyph unicode="o" glyph-name="o" horiz-adv-x="813" d="M62 343Q59 456 96 522Q142 602 212 637Q280 671 414 673Q522 675 597 626Q692 565 730 459Q754 391 755 336Q756 197 671 105Q628 59 551 32T395 14Q243 29 154 103Q106 143 85 200T62 343ZM701 359Q700
421 668 476T587 569Q526 615 419 618Q314 621 250 591Q181 557 150 488Q112 403 113 351Q115 269 131 215T190 126Q245 83 411 67Q455 63 503 69T579 95Q590 102 615 129T642 157Q683 196 693 238T701 359Z" />
<glyph unicode="p" glyph-name="p" horiz-adv-x="743" d="M185 184Q179 154 179 139T183 86T187 22Q187 4 170 0T135 1T119 16Q123 60 122 99T119 183Q118 220 128 398Q134 504 127 573Q123 611 124 634T138 666T180 676Q202 676 232 675T284 673Q394 671 483
661Q611 647 660 563Q694 506 689 425Q687 373 670 338T610 275Q518 213 349 209Q328 208 307 208T264 206T227 202T199 195T185 184ZM228 260Q251 261 288 261T349 262Q396 263 433 272T508 296T557 316Q593 327 619 358T646 424Q650 502 621 544T511 601Q485
606 470 607T440 608T388 608Q263 614 253 614Q199 616 191 611T182 568Q181 538 181 441T182 323Q181 281 190 270T228 260Z" />
<glyph unicode="q" glyph-name="q" horiz-adv-x="805" d="M648 77Q663 59 678 44T723 1T766 -38Q786 -56 767 -81T728 -88Q704 -67 681 -39T645 2Q614 35 598 46T572 53Q527 34 474 25Q429 19 393 13T317 11T242 33Q186 61 126 157Q95 206 78 259T61 350Q62 414
81 461T142 561Q192 622 248 644T388 665Q493 662 544 647T651 584Q705 538 724 485T745 353Q747 283 738 253T695 168Q691 161 681 151T663 134T648 116T641 97T648 77ZM537 125Q536 126 515 145T487 171Q469 190 495 206T537 201Q552 180 580 150Q609 125 642
175Q698 259 696 345Q696 374 696 398T691 444T675 487T641 535Q580 604 495 614Q274 642 186 527Q113 435 120 334Q127 234 157 178T266 83Q311 64 377 65T509 84Q544 93 548 103T537 125Z" />
<glyph unicode="r" glyph-name="r" horiz-adv-x="834" d="M172 20Q172 7 158 0T129 -4T114 17Q113 56 116 96T120 171Q120 206 122 297T123 431Q111 653 147 661Q182 669 218 671T281 672T359 667T449 662Q746 651 746 409Q746 334 684 290T517 232Q399 216 386
216Q381 216 360 216T323 217T293 216T279 211Q279 205 296 199T347 183T395 169Q420 161 490 136T587 102Q625 90 667 78T762 50Q788 42 777 16T741 -1Q679 25 613 45T489 82Q475 86 345 131Q336 134 299 150T230 178T183 186Q172 184 170 140T172 20ZM227 260Q448
263 543 287Q614 305 647 337T678 437Q674 528 622 566T465 610Q298 618 285 619Q190 627 180 586Q175 565 174 519T173 436T173 371Q171 332 171 313T174 279T183 264T200 260T227 260Z" />
<glyph unicode="s" glyph-name="s" horiz-adv-x="777" d="M603 610Q588 611 540 614T482 617Q391 621 299 614Q231 608 187 589Q162 578 143 549T124 485Q126 397 280 402Q311 403 377 402T489 401Q588 403 645 362Q727 304 728 202Q729 118 685 77T554 18Q461
0 346 3Q282 3 222 5T145 17Q130 25 127 42T131 73T148 84Q199 74 374 68Q421 66 455 66T533 75Q606 88 636 111T665 198Q665 212 664 229T661 261T652 291T633 313Q596 340 479 343Q469 343 390 347T250 350Q169 349 120 397T75 516Q81 605 157 639Q251 680 321
677Q395 674 442 676T526 679T587 672Q601 668 610 653T617 624T603 610Z" />
<glyph unicode="t" glyph-name="t" horiz-adv-x="678" d="M403 627Q389 626 383 624T371 611T364 575Q363 554 367 510T372 446Q372 426 367 271Q366 245 369 206T371 147Q370 132 372 91T372 23Q371 9 352 2T316 0T300 22Q311 107 313 226Q315 357 308 487T288
623Q277 628 170 625Q110 623 58 621Q45 620 47 650T71 681T235 675Q270 673 404 677Q417 677 453 675T511 675Q531 676 564 674T620 673Q632 674 632 648T617 620Q601 619 575 622T530 626Q522 626 465 627T403 627Z" />
<glyph unicode="u" glyph-name="u" horiz-adv-x="846" d="M168 664Q166 589 166 476Q166 302 169 249Q168 207 171 179T197 113Q217 80 232 69T284 52Q309 45 342 51T393 57T482 55T574 56Q623 60 643 81T678 168Q687 210 688 248T687 334T686 417Q687 442 691
491T695 573Q695 588 693 600T687 628T682 656Q680 669 694 678T724 685T742 664Q746 633 748 571Q753 436 747 353Q746 317 747 279T748 211T737 138Q720 59 683 26T577 -13Q533 -16 496 -11T430 -5Q422 -5 352 -9T266 -7Q246 -4 228 7T199 31T168 67T136 104Q114
127 109 189T105 302Q103 342 107 394T111 476Q111 600 104 660Q102 676 118 683T151 686T168 664Z" />
<glyph unicode="v" glyph-name="v" horiz-adv-x="723" d="M103 656L133 571Q143 545 171 489T206 418Q224 376 263 311T308 234Q315 222 329 188T351 140Q370 104 378 94T392 90T406 123Q436 211 439 217Q456 256 494 328T549 445Q560 476 587 534T629 643Q634
659 654 666T690 669T699 647Q630 478 575 362Q565 341 534 283T480 170Q468 142 454 86T422 11Q408 -3 386 -10T358 -4Q350 20 341 40T320 82T303 114Q292 137 267 185T222 274T181 363Q129 485 85 549Q71 569 62 593T45 641Q39 657 51 667T80 675T103 656Z" />
<glyph unicode="w" glyph-name="w" horiz-adv-x="1032" d="M102 652Q111 604 132 550T182 436Q197 402 212 349T239 265L272 182Q296 125 306 125T334 178Q337 186 346 212T360 251Q381 312 399 371T431 492Q435 509 442 534T453 574Q455 585 455 610T455 650Q457
669 468 674T495 667T518 624Q542 539 591 425Q602 398 621 361T652 297Q665 269 693 215T738 117Q744 103 755 116T773 154Q794 226 816 278Q865 394 886 460T935 658Q939 675 958 685T994 691T1006 669Q977 545 945 454Q922 388 869 256T780 4Q772 -20 747 -13T716
18Q703 67 694 92Q678 136 648 196T605 283Q569 365 527 470Q518 494 509 501T493 504T484 484Q464 393 439 332Q436 325 420 293T396 235Q384 199 377 169T363 97T349 28Q345 10 308 13T266 38Q254 98 242 130T206 220Q201 233 174 303T130 411Q75 541 68 564Q45
637 41 657Q37 674 51 680T82 678T102 652Z" />
<glyph unicode="x" glyph-name="x" horiz-adv-x="674" d="M319 377L192 555Q179 574 157 597T125 640Q116 657 128 670T160 682T191 661Q259 544 284 512Q292 501 317 467T348 427Q355 420 368 426T391 448Q416 490 458 550T529 662Q537 677 560 680T591 673T583
639Q567 621 554 597T522 553Q475 503 435 437Q428 426 415 408T396 378T388 357Q387 347 392 337T404 318T426 291T453 256Q470 233 498 204T543 151Q556 134 576 110T608 68T633 27Q641 12 626 3T589 -5T561 14Q543 55 523 86T463 166T404 243Q382 276 371 291T351
304T324 273Q305 245 277 200T229 127L132 -10Q121 -25 103 -24T78 -11T79 17Q99 44 133 81T188 149L283 288Q331 359 319 377Z" />
<glyph unicode="y" glyph-name="y" horiz-adv-x="728" d="M252 393Q238 416 193 467T141 527Q120 552 93 589T50 645Q40 658 52 667T85 674T112 659Q134 618 153 591T201 533T250 473Q261 459 281 422T316 369Q336 344 360 321T398 300Q423 305 467 389Q484 420
520 462T567 518Q581 538 595 566T625 615Q632 626 637 640T650 665Q660 679 680 680T711 671T713 646Q709 640 677 595Q658 569 603 485T508 353Q482 321 475 313T454 285T441 264T436 245T433 223T435 195T436 152Q436 125 430 92T425 20Q425 3 414 -3T389 0T374
29Q370 65 374 108T377 179Q375 214 373 224T359 251Q359 252 318 302T252 393Z" />
<glyph unicode="z" glyph-name="z" horiz-adv-x="639" d="M547 -10Q518 -9 410 -8T273 -6Q215 -8 145 -5T71 19T77 62T103 106T141 150T185 196Q212 225 237 258T278 305Q334 358 425 482Q457 524 481 561T500 610Q498 615 493 618T480 622T460 623T432 624Q399
625 348 624T271 622Q244 622 185 616T101 610Q84 611 79 627T80 659T99 675Q183 672 228 672Q254 672 328 676T433 679Q451 678 492 680T556 681T583 669Q587 652 588 640T582 611T569 582T549 552T525 523T500 492T476 461Q405 363 294 253Q276 235 260 216T226
174T196 138Q141 75 154 48Q158 40 175 39T226 39T281 41Q319 39 420 41T558 50Q573 53 582 38T583 6T547 -10Z" />
<glyph unicode="{" glyph-name="braceleft" horiz-adv-x="399" d="M361 647Q296 654 259 645Q189 626 184 387Q184 357 171 340T145 317T131 308T141 298T164 282T186 248T195 189Q188 50 250 46Q264 45 291 45T340 43T375 40Q381 39 381 25T377 -2T364 -13Q364
-8 315 -8T257 -9Q223 -8 200 11T164 63T147 133T140 219Q139 251 114 264T25 280Q11 281 14 308T33 335Q96 331 115 350T137 419Q136 467 141 529T166 627Q182 653 208 672T264 693Q345 696 372 694Q380 694 381 682T376 658T361 647Z" />
<glyph unicode="|" glyph-name="bar" horiz-adv-x="315" d="M130 -67Q130 -47 132 -27T133 13Q128 192 136 322Q136 335 134 452Q134 462 133 587T128 749Q127 766 139 772T164 774T179 761Q183 719 183 549Q183 531 186 523T190 497Q194 336 189 230Q186 168
189 19Q191 -60 192 -73Q193 -90 178 -95T147 -93T130 -67Z" />
<glyph unicode="}" glyph-name="braceright" horiz-adv-x="393" d="M54 59Q61 58 98 53T152 48Q171 49 178 50T194 58T210 76Q235 121 232 188Q231 225 239 252T257 290T276 309T283 320Q282 325 273 332T255 346T236 374T223 426Q220 458 220 488T221 550T223
600Q223 623 203 635T153 650Q135 651 99 650T51 650T44 676T62 700Q76 700 105 700T156 699Q230 699 256 657T276 489Q272 408 293 383T377 355Q395 354 395 326T378 297Q329 294 306 272T280 200Q278 158 270 124Q267 111 266 93T264 68Q256 27 237 12T174 -4Q146
-5 43 2Q34 2 33 17T38 46T54 59Z" />
<glyph unicode="~" glyph-name="asciitilde" horiz-adv-x="500" d="M443 315Q430 273 400 244T334 214Q291 211 244 257Q195 305 162 302Q146 301 138 280T125 237Q122 228 108 228T84 236T80 262Q96 306 115 328T168 354Q189 356 212 347Q231 338 253 314Q290
275 335 272Q352 271 363 281T379 307T390 340Q396 358 422 344T443 315Z" />
</font>
</defs>
</svg>
